<?xml version="1.0" encoding="UTF-8" standalone="no"?>
<svg
   inkscape:export-ydpi="576"
   inkscape:export-xdpi="576"
   inkscape:export-filename="D:\Project Real\adnan #2.2\export Flat\PNG\17 - Fire Exit.png"
   width="64pt"
   height="64pt"
   viewBox="0 0 22.577778 22.577778"
   version="1.1"
   id="svg831"
   inkscape:version="1.1.1 (1:1.1+202109281949+c3084ef5ed)"
   sodipodi:docname="18 - Restaurant.svg"
   xmlns:inkscape="http://www.inkscape.org/namespaces/inkscape"
   xmlns:sodipodi="http://sodipodi.sourceforge.net/DTD/sodipodi-0.dtd"
   xmlns="http://www.w3.org/2000/svg"
   xmlns:svg="http://www.w3.org/2000/svg"
   xmlns:rdf="http://www.w3.org/1999/02/22-rdf-syntax-ns#"
   xmlns:cc="http://creativecommons.org/ns#"
   xmlns:dc="http://purl.org/dc/elements/1.1/">
  <defs
     id="defs825">
    <pattern
       id="EMFhbasepattern"
       patternUnits="userSpaceOnUse"
       width="6"
       height="6"
       x="0"
       y="0" />
    <pattern
       id="EMFhbasepattern-9"
       patternUnits="userSpaceOnUse"
       width="6"
       height="6"
       x="0"
       y="0" />
    <pattern
       id="EMFhbasepattern-0"
       patternUnits="userSpaceOnUse"
       width="6"
       height="6"
       x="0"
       y="0" />
    <pattern
       id="EMFhbasepattern-7"
       patternUnits="userSpaceOnUse"
       width="6"
       height="6"
       x="0"
       y="0" />
    <pattern
       id="EMFhbasepattern-2"
       patternUnits="userSpaceOnUse"
       width="6"
       height="6"
       x="0"
       y="0" />
    <pattern
       id="EMFhbasepattern-98"
       patternUnits="userSpaceOnUse"
       width="6"
       height="6"
       x="0"
       y="0" />
    <pattern
       id="EMFhbasepattern-6"
       patternUnits="userSpaceOnUse"
       width="6"
       height="6"
       x="0"
       y="0" />
    <pattern
       id="EMFhbasepattern-01"
       patternUnits="userSpaceOnUse"
       width="6"
       height="6"
       x="0"
       y="0" />
    <pattern
       id="EMFhbasepattern-07"
       patternUnits="userSpaceOnUse"
       width="6"
       height="6"
       x="0"
       y="0" />
    <pattern
       id="EMFhbasepattern-8"
       patternUnits="userSpaceOnUse"
       width="6"
       height="6"
       x="0"
       y="0" />
    <pattern
       id="EMFhbasepattern-4"
       patternUnits="userSpaceOnUse"
       width="6"
       height="6"
       x="0"
       y="0" />
    <pattern
       id="EMFhbasepattern-40"
       patternUnits="userSpaceOnUse"
       width="6"
       height="6"
       x="0"
       y="0" />
    <pattern
       id="EMFhbasepattern-08"
       patternUnits="userSpaceOnUse"
       width="6"
       height="6"
       x="0"
       y="0" />
    <pattern
       id="EMFhbasepattern-04"
       patternUnits="userSpaceOnUse"
       width="6"
       height="6"
       x="0"
       y="0" />
    <pattern
       id="EMFhbasepattern-014"
       patternUnits="userSpaceOnUse"
       width="6"
       height="6"
       x="0"
       y="0" />
    <pattern
       id="EMFhbasepattern-27"
       patternUnits="userSpaceOnUse"
       width="6"
       height="6"
       x="0"
       y="0" />
    <pattern
       id="EMFhbasepattern-09"
       patternUnits="userSpaceOnUse"
       width="6"
       height="6"
       x="0"
       y="0" />
    <pattern
       id="EMFhbasepattern-5"
       patternUnits="userSpaceOnUse"
       width="6"
       height="6"
       x="0"
       y="0" />
    <pattern
       id="EMFhbasepattern-018"
       patternUnits="userSpaceOnUse"
       width="6"
       height="6"
       x="0"
       y="0" />
  </defs>
  <sodipodi:namedview
     id="base"
     pagecolor="#ffffff"
     bordercolor="#666666"
     borderopacity="1.0"
     inkscape:pageopacity="0.0"
     inkscape:pageshadow="2"
     inkscape:zoom="6.28125"
     inkscape:cx="52.059701"
     inkscape:cy="40.278607"
     inkscape:document-units="pt"
     inkscape:current-layer="layer1"
     showgrid="false"
     units="pt"
     inkscape:window-width="1366"
     inkscape:window-height="705"
     inkscape:window-x="0"
     inkscape:window-y="31"
     inkscape:window-maximized="1"
     inkscape:pagecheckerboard="true"
     inkscape:showpageshadow="false"
     inkscape:object-paths="true"
     inkscape:snap-intersection-paths="true"
     inkscape:snap-smooth-nodes="true"
     inkscape:snap-midpoints="true"
     showguides="true"
     inkscape:snap-bbox="true"
     inkscape:bbox-nodes="true"
     inkscape:snap-nodes="false"
     inkscape:snap-global="true"
     inkscape:document-rotation="0">
    <inkscape:grid
       type="xygrid"
       id="grid1378" />
    <sodipodi:guide
       position="0.97013831,21.607643"
       orientation="78.000048,0"
       id="guide1380"
       inkscape:locked="false" />
    <sodipodi:guide
       position="0.97013831,0.97013129"
       orientation="0,78.000005"
       id="guide1382"
       inkscape:locked="false" />
    <sodipodi:guide
       position="21.607639,0.97013129"
       orientation="-78.000048,0"
       id="guide1384"
       inkscape:locked="false" />
    <sodipodi:guide
       position="21.607639,21.607643"
       orientation="0,-78.000005"
       id="guide1386"
       inkscape:locked="false" />
  </sodipodi:namedview>
  <metadata
     id="metadata828">
    <rdf:RDF>
      <cc:Work
         rdf:about="">
        <dc:format>image/svg+xml</dc:format>
        <dc:type
           rdf:resource="http://purl.org/dc/dcmitype/StillImage" />
      </cc:Work>
    </rdf:RDF>
  </metadata>
  <g
     inkscape:label="Icon"
     inkscape:groupmode="layer"
     id="layer1"
     transform="translate(0,-274.42223)">
    <g
       transform="matrix(1.2539991,0,0,1.2539991,0.64968893,-76.108723)"
       style="display:inline;stroke-width:0.797449"
       id="g1387">
      <path
         id="path1154"
         d="m 8.4726562,280.32031 c -0.3526277,10e-4 -0.7068004,0.13845 -0.9726562,0.4043 a 0.27524052,0.27524052 0 0 0 -0.00195,0 l -4.140625,4.18555 -1.6503907,1.46289 a 0.27524052,0.27524052 0 0 0 -0.023437,0.0254 l -1.02929692,1.16992 c -0.53167811,0.53167 -0.53167807,1.40192 0,1.93359 a 0.27524052,0.27524052 0 0 0 0.0175781,0.0156 L 1.5058594,290.22461 2.75,291.62109 a 0.27524052,0.27524052 0 0 0 0.011719,0.0117 L 7.5,296.34766 c 0.5324403,0.52966 1.4019187,0.53167 1.9335938,0 l 4.7187502,-4.70118 a 0.27524052,0.27524052 0 0 0 0.0039,-0.004 l 1.263672,-1.31836 0.853516,-0.81641 a 0.27524052,0.27524052 0 0 0 0.0039,-0.006 c 0.53168,-0.53167 0.531682,-1.40192 0,-1.93359 a 0.27524052,0.27524052 0 0 0 -0.002,-0.002 l -1.046875,-1.00977 a 0.27524052,0.27524052 0 0 0 -0.0039,-0.004 L 13.158203,284.63477 9.4375,280.72852 c -0.2620397,-0.2752 -0.612216,-0.40934 -0.9648438,-0.40821 z"
         style="color:#000000;font-style:normal;font-variant:normal;font-weight:normal;font-stretch:normal;font-size:medium;line-height:normal;font-family:sans-serif;font-variant-ligatures:normal;font-variant-position:normal;font-variant-caps:normal;font-variant-numeric:normal;font-variant-alternates:normal;font-variant-east-asian:normal;font-feature-settings:normal;font-variation-settings:normal;text-indent:0;text-align:start;text-decoration:none;text-decoration-line:none;text-decoration-style:solid;text-decoration-color:#000000;letter-spacing:normal;word-spacing:normal;text-transform:none;writing-mode:lr-tb;direction:ltr;text-orientation:mixed;dominant-baseline:auto;baseline-shift:baseline;text-anchor:start;white-space:normal;shape-padding:0;shape-margin:0;inline-size:0;clip-rule:nonzero;display:inline;overflow:visible;visibility:visible;isolation:auto;mix-blend-mode:normal;color-interpolation:sRGB;color-interpolation-filters:linearRGB;solid-color:#000000;solid-opacity:1;vector-effect:none;fill:#ffd784;fill-opacity:1;fill-rule:nonzero;stroke:none;stroke-width:0.438937;stroke-linecap:round;stroke-linejoin:round;stroke-miterlimit:1.5;stroke-dasharray:none;stroke-dashoffset:0;stroke-opacity:1;color-rendering:auto;image-rendering:auto;shape-rendering:auto;text-rendering:auto;enable-background:accumulate;stop-color:#000000" />
      <path
         d="m 16.277493,289.50157 c 0.531681,-0.53167 0.531682,-1.40206 0,-1.93373 -6.96e-4,-6.7e-4 -0.0014,-0.001 -0.0021,-0.002 l -1.046965,-1.00976 c -0.0014,-0.001 -0.0027,-0.003 -0.0041,-0.004 l -2.066029,-1.91771 -3.7207028,-3.90622 C 9.1755566,280.45295 8.825425,280.31877 8.4727973,280.3199 l 7.09e-5,4.9e-4 c -0.352628,0.001 -0.7072117,0.13826 -0.9730674,0.40411 -5.2e-4,0 -0.00104,0 -0.00156,0 l -1.541508,1.55856 c 3.04437,1.30022 4.7967462,6.07528 5.6425602,9.03563 0.210486,0.7367 0.09257,1.81551 0.174667,2.69699 z"
         style="fill:#fbbe65;fill-opacity:1;stroke-width:0.421984;stroke-linecap:round;stroke-linejoin:round;stroke-miterlimit:1.5"
         id="path1242"
         sodipodi:nodetypes="ccccccccccccscc" />
      <path
         id="path1147"
         d="m 8.4667969,284.60938 c -2.1648232,0 -3.9257846,1.76096 -3.9257813,3.92578 7e-6,2.1648 1.7609652,3.92578 3.9257813,3.92578 1.4197861,0 2.6666931,-0.75474 3.3554691,-1.88672 a 0.275213,0.275213 0 0 0 -0.0918,-0.37891 0.275213,0.275213 0 0 0 -0.378907,0.0918 c -0.592196,0.97326 -1.6600744,1.62305 -2.8847651,1.62305 -1.867343,0 -3.374994,-1.50767 -3.375,-3.375 -2.9e-6,-1.86735 1.5076508,-3.375 3.375,-3.375 1.252382,0 2.3425451,0.68146 2.9257811,1.6914 a 0.275213,0.275213 0 0 0 0.375,0.0996 0.275213,0.275213 0 0 0 0.101563,-0.375 c -0.678462,-1.17484 -1.9504579,-1.9668 -3.4023441,-1.96679 z"
         style="color:#000000;font-style:normal;font-variant:normal;font-weight:normal;font-stretch:normal;font-size:medium;line-height:normal;font-family:sans-serif;font-variant-ligatures:normal;font-variant-position:normal;font-variant-caps:normal;font-variant-numeric:normal;font-variant-alternates:normal;font-variant-east-asian:normal;font-feature-settings:normal;font-variation-settings:normal;text-indent:0;text-align:start;text-decoration:none;text-decoration-line:none;text-decoration-style:solid;text-decoration-color:#000000;letter-spacing:normal;word-spacing:normal;text-transform:none;writing-mode:lr-tb;direction:ltr;text-orientation:mixed;dominant-baseline:auto;baseline-shift:baseline;text-anchor:start;white-space:normal;shape-padding:0;shape-margin:0;inline-size:0;clip-rule:nonzero;display:inline;overflow:visible;visibility:visible;isolation:auto;mix-blend-mode:normal;color-interpolation:sRGB;color-interpolation-filters:linearRGB;solid-color:#000000;solid-opacity:1;vector-effect:none;fill:#febe40;fill-opacity:1;fill-rule:nonzero;stroke:none;stroke-width:0.438937;stroke-linecap:round;stroke-linejoin:round;stroke-miterlimit:1.5;stroke-dasharray:none;stroke-dashoffset:0;stroke-opacity:1;color-rendering:auto;image-rendering:auto;shape-rendering:auto;text-rendering:auto;enable-background:accumulate;stop-color:#000000" />
      <path
         id="path1188"
         d="M 14.220703,286.25195 A 0.26460996,0.26460996 0 0 0 13.966797,286.5 l -0.501953,9.0625 c -0.02229,0.43459 0.330463,0.80664 0.765625,0.80664 h 0.794922 c 0.435162,0 0.787914,-0.37204 0.765625,-0.80664 L 15.289062,286.5 a 0.26460996,0.26460996 0 0 0 -0.357421,-0.23242 c -0.199061,0.0749 -0.394988,0.0631 -0.625,-0.006 a 0.26460996,0.26460996 0 0 0 -0.08594,-0.01 z"
         style="color:#000000;font-style:normal;font-variant:normal;font-weight:normal;font-stretch:normal;font-size:medium;line-height:normal;font-family:sans-serif;font-variant-ligatures:normal;font-variant-position:normal;font-variant-caps:normal;font-variant-numeric:normal;font-variant-alternates:normal;font-variant-east-asian:normal;font-feature-settings:normal;font-variation-settings:normal;text-indent:0;text-align:start;text-decoration:none;text-decoration-line:none;text-decoration-style:solid;text-decoration-color:#000000;letter-spacing:normal;word-spacing:normal;text-transform:none;writing-mode:lr-tb;direction:ltr;text-orientation:mixed;dominant-baseline:auto;baseline-shift:baseline;text-anchor:start;white-space:normal;shape-padding:0;shape-margin:0;inline-size:0;clip-rule:nonzero;display:inline;overflow:visible;visibility:visible;isolation:auto;mix-blend-mode:normal;color-interpolation:sRGB;color-interpolation-filters:linearRGB;solid-color:#000000;solid-opacity:1;vector-effect:none;fill:#dc1c4b;fill-opacity:1;fill-rule:nonzero;stroke:none;stroke-width:0.421984;stroke-linecap:round;stroke-linejoin:round;stroke-miterlimit:1.5;stroke-dasharray:none;stroke-dashoffset:0;stroke-opacity:1;color-rendering:auto;image-rendering:auto;shape-rendering:auto;text-rendering:auto;enable-background:accumulate;stop-color:#000000" />
      <path
         id="path1252"
         style="fill:#b41d48;fill-opacity:1;stroke-width:0.421984;stroke-linecap:round;stroke-linejoin:round;stroke-miterlimit:1.5"
         d="m 14.221572,286.31434 a 0.26460996,0.26460996 0 0 0 -0.264067,0.25011 l -0.03669,0.6625 1.394748,-0.0269 -0.03566,-0.63563 a 0.26460996,0.26460996 0 0 0 -0.265617,-0.25011 z" />
      <path
         id="path1231"
         d="m 14.626953,280.70312 c -0.618012,0 -1.152452,0.38808 -1.513672,0.94922 -0.36122,0.56115 -0.572263,1.30861 -0.572265,2.12891 -1e-6,0.8203 0.211045,1.56776 0.572265,2.12891 0.36122,0.56114 0.895657,0.94922 1.513672,0.94922 0.618015,0 1.154405,-0.38808 1.515625,-0.94922 0.36122,-0.56115 0.570314,-1.30861 0.570313,-2.12891 -3e-6,-0.8203 -0.209093,-1.56776 -0.570313,-2.12891 -0.36122,-0.56114 -0.897613,-0.94922 -1.515625,-0.94922 z"
         style="color:#000000;font-style:normal;font-variant:normal;font-weight:normal;font-stretch:normal;font-size:medium;line-height:normal;font-family:sans-serif;font-variant-ligatures:normal;font-variant-position:normal;font-variant-caps:normal;font-variant-numeric:normal;font-variant-alternates:normal;font-variant-east-asian:normal;font-feature-settings:normal;font-variation-settings:normal;text-indent:0;text-align:start;text-decoration:none;text-decoration-line:none;text-decoration-style:solid;text-decoration-color:#000000;letter-spacing:normal;word-spacing:normal;text-transform:none;writing-mode:lr-tb;direction:ltr;text-orientation:mixed;dominant-baseline:auto;baseline-shift:baseline;text-anchor:start;white-space:normal;shape-padding:0;shape-margin:0;inline-size:0;clip-rule:nonzero;display:inline;overflow:visible;visibility:visible;isolation:auto;mix-blend-mode:normal;color-interpolation:sRGB;color-interpolation-filters:linearRGB;solid-color:#000000;solid-opacity:1;vector-effect:none;fill:#d0e2ee;fill-opacity:1;fill-rule:nonzero;stroke:none;stroke-width:0.466183;stroke-linecap:round;stroke-linejoin:round;stroke-miterlimit:1.5;stroke-dasharray:none;stroke-dashoffset:0;stroke-opacity:1;color-rendering:auto;image-rendering:auto;shape-rendering:auto;text-rendering:auto;enable-background:accumulate;stop-color:#000000" />
      <path
         id="path1173"
         d="m 1.890625,286.31445 a 0.26460996,0.26460996 0 0 0 -0.2636719,0.25 L 1.125,295.5625 c -0.022287,0.43459 0.3304629,0.80664 0.765625,0.80664 h 0.7949219 c 0.4351621,0 0.7879111,-0.37205 0.765625,-0.80664 l -0.5019531,-8.99805 a 0.26460996,0.26460996 0 0 0 -0.265625,-0.25 z"
         style="color:#000000;font-style:normal;font-variant:normal;font-weight:normal;font-stretch:normal;font-size:medium;line-height:normal;font-family:sans-serif;font-variant-ligatures:normal;font-variant-position:normal;font-variant-caps:normal;font-variant-numeric:normal;font-variant-alternates:normal;font-variant-east-asian:normal;font-feature-settings:normal;font-variation-settings:normal;text-indent:0;text-align:start;text-decoration:none;text-decoration-line:none;text-decoration-style:solid;text-decoration-color:#000000;letter-spacing:normal;word-spacing:normal;text-transform:none;writing-mode:lr-tb;direction:ltr;text-orientation:mixed;dominant-baseline:auto;baseline-shift:baseline;text-anchor:start;white-space:normal;shape-padding:0;shape-margin:0;inline-size:0;clip-rule:nonzero;display:inline;overflow:visible;visibility:visible;isolation:auto;mix-blend-mode:normal;color-interpolation:sRGB;color-interpolation-filters:linearRGB;solid-color:#000000;solid-opacity:1;vector-effect:none;fill:#dc1c4b;fill-opacity:1;fill-rule:nonzero;stroke:none;stroke-width:0.421984;stroke-linecap:round;stroke-linejoin:round;stroke-miterlimit:1.5;stroke-dasharray:none;stroke-dashoffset:0;stroke-opacity:1;color-rendering:auto;image-rendering:auto;shape-rendering:auto;text-rendering:auto;enable-background:accumulate;stop-color:#000000" />
      <path
         id="path1217"
         d="m 2.3085938,280.73242 a 0.2645835,0.2645835 0 0 0 -0.265625,0.26563 v 2.21875 a 0.2645835,0.2645835 0 0 0 0.265625,0.26562 0.2645835,0.2645835 0 0 0 0.2636718,-0.26562 v -2.21875 a 0.2645835,0.2645835 0 0 0 -0.2636718,-0.26563 z"
         style="color:#000000;font-style:normal;font-variant:normal;font-weight:normal;font-stretch:normal;font-size:medium;line-height:normal;font-family:sans-serif;font-variant-ligatures:normal;font-variant-position:normal;font-variant-caps:normal;font-variant-numeric:normal;font-variant-alternates:normal;font-variant-east-asian:normal;font-feature-settings:normal;font-variation-settings:normal;text-indent:0;text-align:start;text-decoration:none;text-decoration-line:none;text-decoration-style:solid;text-decoration-color:#000000;letter-spacing:normal;word-spacing:normal;text-transform:none;writing-mode:lr-tb;direction:ltr;text-orientation:mixed;dominant-baseline:auto;baseline-shift:baseline;text-anchor:start;white-space:normal;shape-padding:0;shape-margin:0;inline-size:0;clip-rule:nonzero;display:inline;overflow:visible;visibility:visible;isolation:auto;mix-blend-mode:normal;color-interpolation:sRGB;color-interpolation-filters:linearRGB;solid-color:#000000;solid-opacity:1;vector-effect:none;fill:#d0e2ee;fill-opacity:1;fill-rule:nonzero;stroke:none;stroke-width:0.421984;stroke-linecap:round;stroke-linejoin:round;stroke-miterlimit:1.5;stroke-dasharray:none;stroke-dashoffset:0;stroke-opacity:1;color-rendering:auto;image-rendering:auto;shape-rendering:auto;text-rendering:auto;enable-background:accumulate;stop-color:#000000" />
      <path
         id="path1221"
         d="m 3.8964844,280.73242 a 0.2645835,0.2645835 0 0 0 -0.265625,0.26563 v 2.21875 a 0.2645835,0.2645835 0 0 0 0.265625,0.26562 0.2645835,0.2645835 0 0 0 0.2636718,-0.26562 v -2.21875 a 0.2645835,0.2645835 0 0 0 -0.2636718,-0.26563 z"
         style="color:#000000;font-style:normal;font-variant:normal;font-weight:normal;font-stretch:normal;font-size:medium;line-height:normal;font-family:sans-serif;font-variant-ligatures:normal;font-variant-position:normal;font-variant-caps:normal;font-variant-numeric:normal;font-variant-alternates:normal;font-variant-east-asian:normal;font-feature-settings:normal;font-variation-settings:normal;text-indent:0;text-align:start;text-decoration:none;text-decoration-line:none;text-decoration-style:solid;text-decoration-color:#000000;letter-spacing:normal;word-spacing:normal;text-transform:none;writing-mode:lr-tb;direction:ltr;text-orientation:mixed;dominant-baseline:auto;baseline-shift:baseline;text-anchor:start;white-space:normal;shape-padding:0;shape-margin:0;inline-size:0;clip-rule:nonzero;display:inline;overflow:visible;visibility:visible;isolation:auto;mix-blend-mode:normal;color-interpolation:sRGB;color-interpolation-filters:linearRGB;solid-color:#000000;solid-opacity:1;vector-effect:none;fill:#d0e2ee;fill-opacity:1;fill-rule:nonzero;stroke:none;stroke-width:0.421984;stroke-linecap:round;stroke-linejoin:round;stroke-miterlimit:1.5;stroke-dasharray:none;stroke-dashoffset:0;stroke-opacity:1;color-rendering:auto;image-rendering:auto;shape-rendering:auto;text-rendering:auto;enable-background:accumulate;stop-color:#000000" />
      <path
         id="path1225"
         d="m 0.72070312,280.73242 a 0.2645835,0.2645835 0 0 0 -0.26367187,0.26563 v 2.21875 a 0.2645835,0.2645835 0 0 0 0.26367187,0.26562 0.2645835,0.2645835 0 0 0 0.265625,-0.26562 v -2.21875 a 0.2645835,0.2645835 0 0 0 -0.265625,-0.26563 z"
         style="color:#000000;font-style:normal;font-variant:normal;font-weight:normal;font-stretch:normal;font-size:medium;line-height:normal;font-family:sans-serif;font-variant-ligatures:normal;font-variant-position:normal;font-variant-caps:normal;font-variant-numeric:normal;font-variant-alternates:normal;font-variant-east-asian:normal;font-feature-settings:normal;font-variation-settings:normal;text-indent:0;text-align:start;text-decoration:none;text-decoration-line:none;text-decoration-style:solid;text-decoration-color:#000000;letter-spacing:normal;word-spacing:normal;text-transform:none;writing-mode:lr-tb;direction:ltr;text-orientation:mixed;dominant-baseline:auto;baseline-shift:baseline;text-anchor:start;white-space:normal;shape-padding:0;shape-margin:0;inline-size:0;clip-rule:nonzero;display:inline;overflow:visible;visibility:visible;isolation:auto;mix-blend-mode:normal;color-interpolation:sRGB;color-interpolation-filters:linearRGB;solid-color:#000000;solid-opacity:1;vector-effect:none;fill:#d0e2ee;fill-opacity:1;fill-rule:nonzero;stroke:none;stroke-width:0.421984;stroke-linecap:round;stroke-linejoin:round;stroke-miterlimit:1.5;stroke-dasharray:none;stroke-dashoffset:0;stroke-opacity:1;color-rendering:auto;image-rendering:auto;shape-rendering:auto;text-rendering:auto;enable-background:accumulate;stop-color:#000000" />
      <path
         d="m 1.8908407,286.31434 a 0.26460996,0.26460996 0 0 0 -0.2640666,0.25011 l -0.03669,0.6625 1.3947469,-0.0269 -0.035657,-0.63563 a 0.26460996,0.26460996 0 0 0 -0.2656168,-0.25011 z"
         style="fill:#b41d48;fill-opacity:1;stroke-width:0.421984;stroke-linecap:round;stroke-linejoin:round;stroke-miterlimit:1.5"
         id="path1247" />
      <path
         id="path1203"
         d="m 0.73242188,282.95312 a 0.26460996,0.26460996 0 0 0 -0.2578125,0.31836 c 0.14620809,0.70695 0.2720192,1.51151 0.5078125,2.18555 0.11789662,0.33702 0.26135082,0.64393 0.46679692,0.89063 0.205446,0.24669 0.484368,0.43248 0.8203124,0.48242 a 0.26460996,0.26460996 0 0 0 0.078125,0 c 0.3733328,-0.0558 0.6730138,-0.27033 0.890625,-0.54688 0.2176113,-0.27654 0.3669214,-0.61637 0.4824219,-0.97461 0.2310011,-0.71648 0.3276257,-1.52219 0.4335938,-2.03906 a 0.26460996,0.26460996 0 0 0 -0.2578125,-0.31641 z"
         style="color:#000000;font-style:normal;font-variant:normal;font-weight:normal;font-stretch:normal;font-size:medium;line-height:normal;font-family:sans-serif;font-variant-ligatures:normal;font-variant-position:normal;font-variant-caps:normal;font-variant-numeric:normal;font-variant-alternates:normal;font-variant-east-asian:normal;font-feature-settings:normal;font-variation-settings:normal;text-indent:0;text-align:start;text-decoration:none;text-decoration-line:none;text-decoration-style:solid;text-decoration-color:#000000;letter-spacing:normal;word-spacing:normal;text-transform:none;writing-mode:lr-tb;direction:ltr;text-orientation:mixed;dominant-baseline:auto;baseline-shift:baseline;text-anchor:start;white-space:normal;shape-padding:0;shape-margin:0;inline-size:0;clip-rule:nonzero;display:inline;overflow:visible;visibility:visible;isolation:auto;mix-blend-mode:normal;color-interpolation:sRGB;color-interpolation-filters:linearRGB;solid-color:#000000;solid-opacity:1;vector-effect:none;fill:#d0e2ee;fill-opacity:1;fill-rule:nonzero;stroke:none;stroke-width:0.421984;stroke-linecap:round;stroke-linejoin:round;stroke-miterlimit:1.5;stroke-dasharray:none;stroke-dashoffset:0;stroke-opacity:1;color-rendering:auto;image-rendering:auto;shape-rendering:auto;text-rendering:auto;enable-background:accumulate;stop-color:#000000" />
      <path
         d="m 14.627012,280.70331 c -0.185113,0 -0.361458,0.0385 -0.529167,0.10232 0.392846,0.14931 0.733442,0.45334 0.986503,0.84646 0.361221,0.56115 0.569988,1.30877 0.569992,2.12907 0,0.8203 -0.208771,1.56792 -0.569992,2.12907 -0.253085,0.39316 -0.593611,0.69768 -0.986503,0.84698 0.167677,0.0638 0.344092,0.10232 0.529167,0.10232 0.618015,0 1.15445,-0.38816 1.51567,-0.9493 0.36122,-0.56115 0.569992,-1.30877 0.569991,-2.12907 -3e-6,-0.8203 -0.208771,-1.56792 -0.569991,-2.12907 -0.36122,-0.56114 -0.897658,-0.94878 -1.51567,-0.94878 z"
         style="color:#000000;font-style:normal;font-variant:normal;font-weight:normal;font-stretch:normal;font-size:medium;line-height:normal;font-family:sans-serif;font-variant-ligatures:normal;font-variant-position:normal;font-variant-caps:normal;font-variant-numeric:normal;font-variant-alternates:normal;font-variant-east-asian:normal;font-feature-settings:normal;font-variation-settings:normal;text-indent:0;text-align:start;text-decoration:none;text-decoration-line:none;text-decoration-style:solid;text-decoration-color:#000000;letter-spacing:normal;word-spacing:normal;text-transform:none;writing-mode:lr-tb;direction:ltr;text-orientation:mixed;dominant-baseline:auto;baseline-shift:baseline;text-anchor:start;white-space:normal;shape-padding:0;shape-margin:0;inline-size:0;clip-rule:nonzero;display:inline;overflow:visible;visibility:visible;isolation:auto;mix-blend-mode:normal;color-interpolation:sRGB;color-interpolation-filters:linearRGB;solid-color:#000000;solid-opacity:1;vector-effect:none;fill:#aabfd0;fill-opacity:1;fill-rule:nonzero;stroke:none;stroke-width:0.466184;stroke-linecap:round;stroke-linejoin:round;stroke-miterlimit:1.5;stroke-dasharray:none;stroke-dashoffset:0;stroke-opacity:1;color-rendering:auto;image-rendering:auto;shape-rendering:auto;text-rendering:auto;enable-background:accumulate;stop-color:#000000"
         id="path1254" />
      <path
         d="m 3.896403,280.73225 a 0.2645835,0.2645835 0 0 0 -0.2656168,0.26562 v 2.21899 a 0.2645835,0.2645835 0 0 0 0.2656168,0.26561 0.2645835,0.2645835 0 0 0 0.2635498,-0.26561 v -2.21899 A 0.2645835,0.2645835 0 0 0 3.896403,280.73225 Z"
         style="fill:#aabfd0;fill-opacity:1;stroke-width:0.421984;stroke-linecap:round;stroke-linejoin:round;stroke-miterlimit:1.5"
         id="path1259" />
      <path
         d="m 3.2178914,282.95331 c 0.085681,1.29279 -1.3915746,2.16574 -1.885673,3.23391 0.03715,0.0552 0.074762,0.10973 0.1167888,0.16019 0.205446,0.24669 0.4846774,0.43272 0.8206218,0.48266 a 0.26460996,0.26460996 0 0 0 0.078031,0 c 0.3733327,-0.0558 0.6727738,-0.27019 0.8903849,-0.54673 0.2176113,-0.27655 0.3671575,-0.61638 0.4826579,-0.97462 0.2310011,-0.71648 0.3275973,-1.52228 0.4335654,-2.03915 a 0.26460996,0.26460996 0 0 0 -0.2578656,-0.31626 z"
         style="fill:#aabfd0;fill-opacity:1;stroke-width:0.421984;stroke-linecap:round;stroke-linejoin:round;stroke-miterlimit:1.5"
         id="path1261" />
    </g>
  </g>
</svg>
